# xmcd CD database file
#
# Track frame offsets:
#	150
#	16492
#	38755
#	65305
#	95583
#	121153
#	134429
#	175688
#	189248
#	209718
#	233235
#	248656
#	273713
#	298736
#
# Disc length: 4389 seconds
#
# Revision: 2
# Processed by: cddbd v1.5.2PL0 Copyright (c) Steve Scherf et al.
# Submitted via: CDex 1.70beta2
#
DISCID=cc11230e
DTITLE=The Gathering - Sleepy Buildings
DYEAR=2004
DGENRE=Gothic Rock
TTITLE0=Locked Away
TTITLE1=Saturnine
TTITLE2=Amity
TTITLE3=Mirror Waters [Version 2003]
TTITLE4=Red Is a Slow Colour
TTITLE5=Sleepy Buildings
TTITLE6=Travel
TTITLE7=Shrink
TTITLE8=In Motion, Pt. 2
TTITLE9=Stonegarden [Version 2003]
TTITLE10=My Electricity
TTITLE11=Eléanor
TTITLE12=Marooned
TTITLE13=Like Fountains [Version 2003]
EXTD=YEAR: 2004
EXTT0=
EXTT1=
EXTT2=
EXTT3=
EXTT4=
EXTT5=
EXTT6=
EXTT7=
EXTT8=
EXTT9=
EXTT10=
EXTT11=
EXTT12=
EXTT13=
PLAYORDER=
